<?xml version="1.0" encoding="utf-8"?>
<!-- Generator: Adobe Illustrator 22.1.0, SVG Export Plug-In . SVG Version: 6.00 Build 0)  -->
<svg version="1.1" id="Слой_1" xmlns="http://www.w3.org/2000/svg" xmlns:xlink="http://www.w3.org/1999/xlink" x="0px" y="0px"
	 viewBox="0 0 1298 447" style="enable-background:new 0 0 1298 447;" xml:space="preserve">
<style type="text/css">
	.st0{fill:#FFFFFF;}
	.st1{fill:#FF8B38;}
</style>
<path class="st0" d="M265,0H157L0,444l102,2l35-107h153l33,104h101L265,0z M161,258l51-177l56,175L161,258z"/>
<polygon class="st0" points="422,443.1 568,218 431,2 539,2 627,158 721,2 827.1,2 688,215.5 827.1,445 723,445 627,269 522,445 "/>
<g>
	<path class="st1" d="M890,446V8h32v438H890z"/>
	<path class="st1" d="M988,8.5h310V32h-138v414h-33V33H988V8.5z"/>
</g>
</svg>
